<?xml version="1.0" encoding="utf-8"?>
<!-- Generator: Adobe Illustrator 24.1.1, SVG Export Plug-In . SVG Version: 6.00 Build 0)  -->
<svg version="1.1" id="Layer_1" xmlns="http://www.w3.org/2000/svg" xmlns:xlink="http://www.w3.org/1999/xlink" x="0px" y="0px"
	 width="35.6px" height="28.4px" viewBox="0 0 35.6 28.4" style="enable-background:new 0 0 35.6 28.4;" xml:space="preserve">
<style type="text/css">
	.st0{fill:#CC0000;}
</style>
<path class="st0" d="M18.3,16.9L35.2,4.7c0.2-0.2,0.4-0.4,0.4-0.7V3.6C35.6,1.6,34,0,32,0H3.6C1.6,0,0,1.6,0,3.5c0,0,0,0,0,0V4
	c0,0.3,0.1,0.6,0.4,0.7l16.9,12.2C17.6,17.1,17.9,17.1,18.3,16.9"/>
<path class="st0" d="M18.8,20.9c-0.3,0.2-0.7,0.3-1,0.3c-0.4,0-0.7-0.1-1-0.3L0,8.8v16.1c0,2,1.6,3.5,3.5,3.6H32
	c2,0,3.6-1.6,3.6-3.6c0,0,0,0,0,0V8.8L18.8,20.9z"/>
</svg>
