<svg width="28" height="28" viewBox="0 0 28 28" fill="none" xmlns="http://www.w3.org/2000/svg">
<path d="M23.8519 23.8519H19.7037V17.3704C19.7037 15.8148 19.6605 13.8272 17.5432 13.8272C15.3827 13.8272 15.037 15.5123 15.037 17.2407V23.8519H10.8889V10.5H14.8642V12.3148H14.9074C15.7284 10.9321 17.2407 10.1111 18.8395 10.1543C23.0309 10.1543 23.8086 12.9198 23.8086 16.5062L23.8519 23.8519ZM6.22222 8.68519C4.88272 8.68519 3.80247 7.60494 3.80247 6.26543C3.80247 4.92593 4.88272 3.84568 6.22222 3.84568C7.56173 3.84568 8.64198 4.92593 8.64198 6.26543C8.64198 7.60494 7.56173 8.68519 6.22222 8.68519ZM8.2963 23.8519H4.14815V10.5H8.2963V23.8519ZM25.9259 0H2.07407C0.950617 0 0 0.907407 0 2.03086V25.9691C0 27.0926 0.950617 28 2.07407 28H25.9259C27.0494 28 28 27.0926 28 25.9691V2.03086C28 0.907407 27.0494 0 25.9259 0Z" fill="#6E6E6E"/>
</svg>
