<svg id="Layer_1" data-name="Layer 1" xmlns="http://www.w3.org/2000/svg" width="188.4" height="45.02" viewBox="0 0 188.4 45.02"><defs><style>.cls-1{fill:#fff;}</style></defs><title>redgate-logo--white</title><polygon class="cls-1" points="25.68 20.45 13.05 20.14 17.43 24.77 25.68 24.57 25.68 20.45"/><polygon class="cls-1" points="23.75 31.46 25.68 31.24 25.68 27.29 20.12 27.6 23.75 31.46"/><polygon class="cls-1" points="0 33.94 20.47 31.79 16.53 27.83 0 28.78 0 33.94"/><polygon class="cls-1" points="8.84 20.03 0 19.81 0 25.21 13.63 24.88 8.84 20.03"/><polygon class="cls-1" points="9.9 16.82 25.68 17.72 25.68 13.76 4.96 11.59 9.9 16.82"/><polygon class="cls-1" points="0 11.08 0 16.24 5.41 16.55 0 11.08"/><path class="cls-1" d="M26.78,34.16a1.58,1.58,0,0,0,1.09-1.66v-20a1.57,1.57,0,0,0-1.09-1.66L0,7V3.68C3,1.51,9.44,0,16.88,0S30.73,1.51,33.76,3.68V41.34c-3,2.17-9.44,3.68-16.88,3.68S3,43.51,0,41.34V38l26.78-3.81"/><path class="cls-1" d="M46.52,29.71V25.15c0-3.37.09-8.73,1.55-12.1A20.17,20.17,0,0,1,59.77,11a6.21,6.21,0,0,1-.8,4.3,11.52,11.52,0,0,0-6.51.84,32.47,32.47,0,0,0-.89,8.55V34A13.13,13.13,0,0,1,47,34,12.84,12.84,0,0,1,46.52,29.71Z"/><path class="cls-1" d="M72.75,25.37a44.18,44.18,0,0,1-7-.49v1.95c0,3.46,3.37,3.63,6.2,3.63A23.47,23.47,0,0,0,79,29.31a4.12,4.12,0,0,1,.84,3.23A17.88,17.88,0,0,1,71,34.76c-5.49,0-10.37-1.33-10.37-7.8v-3a31.48,31.48,0,0,1,1.91-10.86,18.14,18.14,0,0,1,8.51-2.39c5.76,0,9.88,1.77,9.88,7.8a21.58,21.58,0,0,1-1.06,6.34A64.5,64.5,0,0,1,72.75,25.37ZM71,15a9.4,9.4,0,0,0-4.39,1.15A20,20,0,0,0,65.8,21a19.15,19.15,0,0,0,5.32.53,21.67,21.67,0,0,0,4.61-.4,8.28,8.28,0,0,0,.35-2.53C76.08,15.62,73.6,15,71,15Z"/><path class="cls-1" d="M180.2,25.37a44.18,44.18,0,0,1-7-.49v1.95c0,3.46,3.37,3.63,6.2,3.63a23.47,23.47,0,0,0,7.13-1.15,4.12,4.12,0,0,1,.84,3.23,17.88,17.88,0,0,1-8.86,2.22c-5.49,0-10.37-1.33-10.37-7.8v-3A31.48,31.48,0,0,1,170,13.09a18.14,18.14,0,0,1,8.51-2.39c5.76,0,9.88,1.77,9.88,7.8a21.58,21.58,0,0,1-1.06,6.34A64.5,64.5,0,0,1,180.2,25.37ZM178.47,15a9.4,9.4,0,0,0-4.39,1.15,20,20,0,0,0-.84,4.83,19.15,19.15,0,0,0,5.32.53,21.67,21.67,0,0,0,4.61-.4,8.28,8.28,0,0,0,.35-2.53C183.53,15.62,181,15,178.47,15Z"/><path class="cls-1" d="M166.16,30.77c-0.93.09-1.26,0.11-1.57,0.11-2.57,0-5.23-.16-5.23-3.72V16h5.76a7.11,7.11,0,0,0,0-4.3h-5.76V6a8.22,8.22,0,0,0-4.52,0,29.94,29.94,0,0,0-.49,6.56v14.8c0,5.87,4.39,7.18,6.91,7.24a12.2,12.2,0,0,0,5.52-.93,3.69,3.69,0,0,0,0-1.6A2.1,2.1,0,0,0,166.16,30.77Z"/><path class="cls-1" d="M117.48,10.7a19.76,19.76,0,0,0-8.73,2.3c-1.42,3.37-1.55,8.68-1.55,12.05V27c0,6.47,4.74,7.8,10.06,7.8a12.11,12.11,0,0,0,5.36-1.28A20.33,20.33,0,0,1,122,38.7a11.62,11.62,0,0,1-4.83,1,19,19,0,0,1-7.53-1.37,8,8,0,0,0-1.6,3.81A20.51,20.51,0,0,0,117.17,44a16.92,16.92,0,0,0,9.13-2.39,41.31,41.31,0,0,0,1.42-11V18.5C127.72,12.21,123.2,10.7,117.48,10.7Zm5.23,18.45a11.36,11.36,0,0,1-10.41,0V16.24a11.36,11.36,0,0,1,10.41,0V29.16Z"/><path class="cls-1" d="M141.06,10.7a19.76,19.76,0,0,0-8.73,2.3c-1.42,3.37-1.55,8.68-1.55,12.05v1.73c0,6.42,5.45,7.71,8.33,7.71a10.6,10.6,0,0,0,7.4-2.66l0.4,2.17a8.26,8.26,0,0,0,4,0,53.11,53.11,0,0,0,.35-6.16V18.5C151.29,12.21,146.77,10.7,141.06,10.7Zm5.18,17.37A8.81,8.81,0,0,1,141,30a9.08,9.08,0,0,1-5.21-1.26V16.24a11.36,11.36,0,0,1,10.41,0V28.07Z"/><path class="cls-1" d="M103.66,1.31a10.57,10.57,0,0,0-4.56,0V11.94a8.75,8.75,0,0,0-5.18-1.24A19.44,19.44,0,0,0,85.23,13c-1.24,2.92-1.51,7.53-1.55,10.68V27c0,6.47,4.74,7.8,10.24,7.8a16.24,16.24,0,0,0,8.77-2.39c1.42-3.54,1.46-10.28,1.46-11.7V6.36A17.78,17.78,0,0,0,103.66,1.31ZM99.23,29.16A9.08,9.08,0,0,1,94,30.42a9,9,0,0,1-5.21-1.26V16.24A9.08,9.08,0,0,1,94,15a9,9,0,0,1,5.21,1.26V29.16Z"/></svg>