<svg width="32" height="26" viewBox="0 0 32 26" fill="none" xmlns="http://www.w3.org/2000/svg">
<path d="M10.0608 25.9967C22.1312 25.9967 28.736 15.9871 28.736 7.32146C28.736 7.03986 28.736 6.75826 28.7232 6.47666C30.0032 5.54226 31.1168 4.39026 32 3.08466C30.7968 3.60946 29.5296 3.96786 28.224 4.12146C29.5936 3.30226 30.6176 2.00946 31.104 0.486256C29.8112 1.25426 28.4032 1.79186 26.9312 2.07346C24.448 -0.576144 20.288 -0.704144 17.6384 1.79186C15.936 3.39186 15.2064 5.78546 15.744 8.06386C10.4832 7.79506 5.5552 5.29906 2.2272 1.20306C0.4864 4.19826 1.3696 8.03826 4.2624 9.95826C3.2128 9.93266 2.2016 9.65106 1.28 9.13906C1.28 9.16466 1.28 9.19026 1.28 9.21586C1.28 12.3391 3.4816 15.0271 6.5536 15.6543C5.5808 15.9231 4.5696 15.9615 3.584 15.7695C4.4416 18.4447 6.912 20.2751 9.7152 20.3263C7.3856 22.1567 4.5184 23.1423 1.5616 23.1423C1.0368 23.1423 0.512 23.1039 0 23.0527C3.008 24.9855 6.4896 25.9967 10.0608 25.9967Z" fill="#6E6E6E"/>
</svg>
