<svg width="32" height="23" viewBox="0 0 32 23" fill="none" xmlns="http://www.w3.org/2000/svg">
<path d="M31.3152 3.50288C30.9465 2.13333 29.8667 1.0535 28.4971 0.684774C25.9951 0 15.9868 0 15.9868 0C15.9868 0 5.9786 0 3.47654 0.658436C2.13333 1.02716 1.02716 2.13333 0.658436 3.50288C0 6.00494 0 11.1934 0 11.1934C0 11.1934 0 16.4082 0.658436 18.8839C1.02716 20.2535 2.107 21.3333 3.47654 21.7021C6.00494 22.3868 15.9868 22.3868 15.9868 22.3868C15.9868 22.3868 25.9951 22.3868 28.4971 21.7284C29.8667 21.3597 30.9465 20.2798 31.3152 18.9103C31.9737 16.4082 31.9737 11.2198 31.9737 11.2198C31.9737 11.2198 32 6.00494 31.3152 3.50288ZM12.8 15.9868V6.4L21.1226 11.1934L12.8 15.9868Z" fill="#6E6E6E"/>
</svg>
